<svg xmlns="http://www.w3.org/2000/svg" viewBox="0 0 127.14 96.36" fill="currentColor">
  <path d="M107.7 8.07A105.15 105.15 0 0 0 81.47 0a72.06 72.06 0 0 0-3.36 6.83A97.68 97.68 0 0 0 49 6.83 72.37 72.37 0 0 0 45.64 0a105.89 105.89 0 0 0-26.27 8.14C2.79 33.35-1.71 57.84.54 81.97a105.73 105.73 0 0 0 32.17 16.39 77.7 77.7 0 0 0 6.89-11.2 68.42 68.42 0 0 1-10.85-5.18c.91-.67 1.8-1.37 2.66-2.1 20.92 9.57 43.63 9.57 64.3 0 .87.73 1.76 1.43 2.66 2.1a68.68 68.68 0 0 1-10.87 5.19 77 77 0 0 0 6.89 11.19 105.25 105.25 0 0 0 32.2-16.39c2.64-27.98-4.5-52.25-18.89-73.9ZM42.45 65.69c-6.27 0-11.4-5.74-11.4-12.8s5-12.81 11.4-12.81S53.9 45.82 53.85 52.89c0 7.06-5.04 12.8-11.4 12.8Zm42.24 0c-6.27 0-11.4-5.74-11.4-12.8s5-12.81 11.4-12.81 11.4 5.74 11.4 12.81-5.06 12.8-11.4 12.8Z"/>
</svg>
